<?xml version="1.0" encoding="UTF-8" standalone="no"?>
<!DOCTYPE svg PUBLIC "-//W3C//DTD SVG 1.1//EN" "http://www.w3.org/Graphics/SVG/1.1/DTD/svg11.dtd">
<svg width="100%" height="100%" viewBox="0 0 759 430" version="1.1" xmlns="http://www.w3.org/2000/svg" xmlns:xlink="http://www.w3.org/1999/xlink" xml:space="preserve" xmlns:serif="http://www.serif.com/" style="fill-rule:evenodd;clip-rule:evenodd;stroke-linejoin:round;stroke-miterlimit:2;">
    <g transform="matrix(1,0,0,1,-1208,-231.62787)">
        <g id="navbar-logo" transform="matrix(0.741211,0,0,0.419247,1208,231.62787)">
            <rect x="0" y="0" width="1024" height="1024" style="fill:none;"/>
            <clipPath id="_clip1">
                <rect x="0" y="0" width="1024" height="1024"/>
            </clipPath>
            <g clip-path="url(#_clip1)">
                <g transform="matrix(1.349144,0,0,2.385228,-155.151515,-552.485227)">
                    <path d="M388.5,484.96C376.39,486.69 360.82,485.87 353.83,483.15C352.36,482.58 348.98,480.56 346.33,478.67C341.01,474.88 330.17,469.3 322.67,466.48C316.58,464.19 310.24,456.72 304.88,445.5C300.25,435.83 298.44,429.06 296.49,414.2C294.14,396.35 294.88,382.05 299.13,363.5C305.52,335.54 324.2,316.43 352.5,308.9C362.81,306.16 386.19,305.81 395.5,308.26C432.61,318.02 450.17,343.14 452.65,390C454.09,417.13 447.87,442.3 435.69,458.69C425.55,472.34 407.81,482.21 388.5,484.96ZM723.9,537.75C723.24,539.5 722.25,540 719.5,540C716.59,540 715.75,539.51 714.79,537.25C714.14,535.74 712.83,533.6 711.87,532.5C710.91,531.4 708.86,528.62 707.31,526.33C703.66,520.91 697.67,516.22 693.39,515.41L690,514.78L690,494L698.98,494C709.55,494 714.8,492.28 718.29,487.66C720.74,484.41 727,469.84 727,467.37C727,466.61 721.42,450.58 714.59,431.74C707.77,412.91 700.16,391.88 697.68,385C678.8,332.56 670.74,310.39 670.34,309.74C670.08,309.31 683.26,309.09 699.64,309.24L729.42,309.5L732.78,320.5C734.63,326.55 739.97,343.42 744.66,358L745.62,361C753.98,387.02 756.29,394.22 757.35,394.04C757.8,393.97 758.03,392.59 758.39,390.75C758.74,388.96 762.59,376.48 766.95,363C771.3,349.52 776.93,331.86 779.47,323.75L784.07,309L813.14,309C840.42,309 842.17,309.11 841.53,310.75C840.34,313.8 833.31,333.03 828.65,346C810.05,397.79 801.46,421.61 798.9,428.5C797.27,432.9 794.02,441.87 791.67,448.42L787.39,460.35L781.36,461.58C768.3,464.24 754.81,474.28 745.83,488C739.77,497.27 731.33,514.98 727.96,525.5C726.2,531 724.38,536.51 723.9,537.75ZM491.67,480.48C489,481.87 485.51,483 483.91,483L481,483L481,357L472.06,357C466.79,357 462.85,356.56 462.46,355.93C462.09,355.34 462.13,345.44 462.53,333.93L463.25,313L480.7,313L481.31,300.75C482.3,280.75 486.67,269.16 496.67,260.02C503.05,254.18 509.74,250.78 520.5,247.87C527.15,246.07 531.37,245.69 545.5,245.63C554.85,245.6 563.74,245.89 565.25,246.3L568,247.04L568,292L557.97,292C546.23,292 541.96,293.39 539,298.19C537.47,300.68 537.03,302.87 537.23,307L537.5,312.5L566.5,313.05L566.31,334.78L566.12,356.5L551.56,356.78L537,357.05L537,483.04L534.25,482.35C532.74,481.97 529.68,480.86 527.44,479.87C516.86,475.19 501.35,475.46 491.67,480.48ZM670.39,481.42C669.87,482.78 667.34,483 652.54,483L635.3,483L633.53,479.07C630.01,471.27 623,467 613.68,467C610.72,467 606.85,467.5 605.08,468.12C602.15,469.14 601.6,468.99 598.86,466.37C594.46,462.15 590.29,454.29 588.3,446.42C586.76,440.38 586.54,434.25 586.52,398.28L586.5,357.07L568.5,356.5L567.96,313L576.91,313C585.08,313 585.92,312.82 586.52,310.94C586.88,309.8 587.04,298.44 586.87,285.69L586.57,262.5L614.27,262.23L641.97,261.97L642.23,287.23L642.5,312.5L671.04,313.06L670.5,356.5L656.25,356.78L642,357.05L642.06,391.28C642.12,428.28 642.42,430.77 647.32,434.41C649.67,436.15 651.89,436.56 660.57,436.84L671,437.18L671,458.51C671,470.24 670.73,480.55 670.39,481.42ZM233,467.78C228.32,469.4 223.73,471.05 222.8,471.45C220.43,472.46 212.85,464.5 209.56,457.54C208.81,455.96 208.17,454.62 207.61,453.25C204.03,444.48 204.03,434.25 204.02,348.97L204.01,343.75L204,248L260,248L260,348.93C259.99,423.27 259.99,431.88 263.91,434.41C264.62,434.87 265.45,435.13 266.43,435.54C268.61,436.45 273.28,437 278.81,437L287.68,437L287.32,459.5L279.91,459.67C262.15,460.07 248.37,462.45 233,467.78ZM367.5,435.5C378.07,439.24 388.32,434.65 392.83,424.16C395.75,417.39 397.36,402.66 396.64,389.5C395.7,372.58 391.96,361.77 385.71,357.96C380.8,354.97 367.54,355.16 362.9,358.29C358.42,361.3 355.27,367.22 353.36,376.19C351.31,385.86 351.98,412.91 354.47,420.87C356.51,427.4 361.99,433.55 367.5,435.5Z" style="fill:white;fill-rule:nonzero;"/>
                    <path d="M433.54,659.12C428.33,661.49 419.6,661.55 415,659.25C409.71,656.61 406.71,650.08 407.53,643C408.38,635.71 410.84,630.33 417.76,620.7C423.79,612.3 440.33,596.49 452.6,587.4C459.3,582.44 459.79,581.8 461.42,575.98C462.38,572.59 462.94,569.61 462.68,569.34C462.41,569.08 473.15,553.86 464.46,550.54C459.45,548.62 449.96,548.61 434.08,556.39L418.5,565.95L409.75,572.05C404.55,575.67 397.75,579.33 392.97,581.07C371.41,588.94 360.51,580.77 365.51,560.48C367.52,552.37 373.17,539.51 376.13,536.37C378.59,533.74 384.22,532.51 386.99,533.99C389.96,535.58 389.53,539.31 385,551.38C382.34,558.46 381,563.66 381,566.89C381,571.3 381.27,571.87 383.85,572.94C387.27,574.36 390.64,573.65 398,569.95C404.39,566.74 411.27,561.76 420.17,553.92C427.97,547.05 431.79,544.6 443.08,540C447.71,538.11 445.412,541.1 458.46,540C479.58,538.22 490.325,535.411 492.31,540C497.5,552 479.59,545.41 477.49,555.08C474.76,567.63 480.49,569.43 482.1,568.45C502.95,555.72 513.64,547.63 516.11,542.72C517.27,540.4 519.15,537.49 520.27,536.27C524.14,532.05 532.03,532.38 533.44,536.82C534.03,538.68 532.09,544.89 527.59,555.5C526.1,559.02 525.04,563.45 525.02,566.23C525,570.18 525.41,571.22 527.5,572.59C532.3,575.73 540.94,572.42 554.55,562.2C571.86,549.22 576.89,542.38 588.04,516.75L591.85,508L546.9,508L545.91,510.75C543.82,516.54 535.28,519.73 530.4,516.53C528.11,515.02 527.83,514.3 528.28,510.93C528.33,510.56 528.39,510.22 528.44,509.92C528.59,509.03 528.69,508.41 528.47,507.93C527.87,506.62 524.84,506.42 513.57,505C502.38,503.59 498,501.88 498,498.91C498,495.3 500.82,494.07 509.21,494.03C514.62,494.01 518.44,494.6 521.98,495.99C524.76,497.09 530.96,498.43 535.77,498.97C545.72,500.09 581.72,500.96 590.04,500.29C595.43,499.85 595.66,499.71 597.93,495.42C601.48,488.74 608.17,483 612.41,483C617.24,483 619.22,485.26 618.4,489.85C618.03,491.86 617.35,494.26 616.87,495.18C614.44,499.9 614.82,500 634.38,500C648.7,500 653.01,500.3 653.89,501.37C656.11,504.05 652.5,504.82 632.64,505.92C621.71,506.53 612.39,507.26 611.92,507.55C610.86,508.21 600.54,526.53 598.01,532.25C591.7,546.53 588.85,566.07 592.31,571.35C597.4,579.12 610.4,573.51 632.49,554.01C636.23,550.7 640.07,548 641.03,548C641.98,548 643.28,547.37 643.92,546.6C646.47,543.53 660.88,535.01 667,532.96C674.19,530.56 683.43,529.39 687.4,530.39C691.05,531.3 693.47,535.25 692.04,537.93C691.06,539.76 689.99,540 682.71,540.01C676.12,540.02 673.47,540.5 669.26,542.46C662.11,545.79 654.69,552.96 652.05,559.1C647.57,569.53 651.5,575.88 659.71,571.46C665.2,568.5 672.51,561.52 678.95,553.08C686.13,543.69 687.58,542.42 692.11,541.61C694.8,541.13 696.29,541.42 697.92,542.73C700.85,545.11 701.05,547.48 698.85,553.91C697.83,556.88 697,561.29 697,563.7C697,567.7 697.29,568.22 700.2,569.44C702.85,570.56 704.14,570.56 707.75,569.47C714.11,567.56 724.94,560.71 732.38,553.89C738.25,548.51 738.98,547.4 740.05,542.22C741.32,536.05 746.77,520.33 749.53,514.86C761.1,491.92 774.7,478.27 786.51,477.76C790.24,477.6 791.49,478.04 793.76,480.3C796.21,482.76 796.5,483.76 796.5,489.9C796.5,496.05 796.05,497.62 792.14,505.13C785.34,518.17 779.68,525.52 766.34,538.62L754,550.74L754,557.47C754,566.63 755.91,570.42 761.63,572.6C765.44,574.06 766.84,574.13 771.42,573.1C774.36,572.45 779.41,570.32 782.64,568.39C789.95,564 803,554.08 803,552.92C803,551.97 808.27,549 809.95,549C810.53,549 811,550.3 811,551.88C811,555.32 806.71,560.03 795.31,569.1C785.93,576.56 774.46,582.31 765.65,583.97C760.07,585.02 758.37,584.96 753.38,583.51C743.95,580.77 738.02,573.15 738.01,563.75C738,562.22 737.45,561 736.75,561.01C736.06,561.01 732.35,563.54 728.5,566.64C724.65,569.74 717.67,574.12 713,576.38C705.22,580.15 703.83,580.5 696.5,580.5C687.01,580.5 683.2,578.47 680.62,572.01C679.74,569.81 678.76,568 678.44,568C678.12,568 675.31,570.09 672.18,572.65C665.36,578.24 656.52,582.56 648.73,584.13C643.88,585.1 642.34,585.02 638.63,583.6C632.48,581.25 630.74,578.95 630.2,572.42L629.74,566.87L627.12,569.29C622.84,573.24 615.49,577.87 607.24,581.8C600.4,585.07 598.61,585.5 591.83,585.5C585.64,585.5 583.62,585.1 581.39,583.44C575.69,579.19 574.53,576.53 574.15,566.93C573.96,562.02 573.38,558 572.87,558C572.36,558 569.1,560.41 565.62,563.36C550.25,576.4 535.27,583.95 524.72,583.98C512.7,584.02 508.55,579.67 508.75,567.25C508.82,563.26 508.71,560 508.52,560C508.33,560 501.3,564.66 492.88,570.35L477.59,580.71L471.5,598.6C463.96,620.74 460.46,629 454.57,638.43C449.41,646.72 439.6,656.37 433.54,659.12ZM312.5,583.6C304.22,585.84 284.94,586.39 278.5,584.57C270.69,582.36 264.2,579.29 261.38,576.47C258.9,573.99 258.86,573.81 260.55,571.94C262.77,569.49 263.04,569.51 269.31,572.37C296.15,584.62 324.99,572.02 333.96,544.13C338.86,528.87 334.42,511.29 322.7,499.57C316.77,493.64 308.93,489.31 299,486.46C290.1,483.9 268.74,483.88 257.5,486.41C238.12,490.78 222,502.8 222,512.89C222,517.92 223.72,520.8 228.97,524.57C231.74,526.56 234,528.8 234,529.56C234,533.37 223.16,534.23 216.38,530.94C214.04,529.81 210.52,527.11 208.56,524.94C205.42,521.46 205,520.37 205.02,515.75C205.05,508.76 207.62,503.47 214.05,497.14C224.76,486.6 245.78,478.92 268.79,477.14C308.41,474.07 339.47,485.98 350.61,508.52C360.45,528.43 356.28,551.74 339.94,568.11C332.78,575.29 323.2,580.7 312.5,583.6ZM183.5,652.1C170.25,654.46 131.69,655.92 129.12,654.16C126.69,652.5 131.8,650.21 146.08,646.55C168.11,640.91 226.05,629.66 249,626.57C255.32,625.72 263.42,624.56 267,624.01C295.39,619.61 356.93,613.35 390.9,611.41L403.3,610.7L400.96,614.85C399.68,617.13 398.02,619 397.28,619C393.87,619 340.53,625.39 321.6,628.06C295.76,631.71 262.55,637.14 242.5,640.99C209.26,647.37 194.94,650.06 183.5,652.1ZM855.21,625.96C850.81,627.18 819.29,627.12 810,625.87C786.13,622.66 723.65,617.35 668.5,613.84C656.75,613.09 618.21,612.56 567.54,612.44C519.17,612.32 485.46,611.87 485.28,611.33C485.11,610.83 485.58,609.59 486.32,608.58C487.58,606.86 490.49,606.68 528.58,605.96C626.94,604.11 766.42,610.14 843.91,619.59C860.38,621.59 863.86,623.56 855.21,625.96ZM246.56,581.81C243.86,584.18 241.98,585 239.22,584.98C232.43,584.96 232.18,583.98 236.96,576.07C239.32,572.16 243.15,563.91 245.47,557.73C251.5,541.64 258.21,525.57 263.04,515.65C267.39,506.71 273.68,499.62 278.29,498.46C282.34,497.45 288.45,498.35 288.77,500.01C288.92,500.84 286.39,506.38 283.14,512.33C279.88,518.28 275.11,528.18 272.54,534.32C259.59,565.21 254.16,575.14 246.56,581.81ZM420.45,649.55C421.8,650.9 423.4,652 424,652C427.98,652 435.65,644.87 440.41,636.74C445.97,627.25 456.89,598.56 455.48,597.14C453.35,595.02 433.28,614.47 425.83,625.88C421.3,632.79 418,640.96 418,645.23C418,646.25 419.1,648.2 420.45,649.55ZM759.27,530.72C758.42,535.94 760.24,534.8 769.28,524.43C778,514.42 784.92,501.88 785.74,494.61C786.24,490.21 786.15,490 783.73,490C780.64,490 776.68,494.31 771.14,503.7C766.09,512.25 760.03,526.07 759.27,530.72ZM395.32,516.88C392.02,518.57 388.57,518.23 385.63,515.93C382.22,513.24 382.27,509.85 385.78,505.92C389.34,501.93 396.87,500.67 400.02,503.52C404.13,507.24 401.94,513.47 395.32,516.88Z" style="fill:rgb(219,179,150);fill-rule:nonzero;"/>
                    <g transform="matrix(1,0,0,1,-1093,-0)">
                        <path d="M1552,522L1562,512C1576.984,506.712 1574,523 1574,523L1561,531L1552,522Z" style="fill:none;"/>
                    </g>
                    <g transform="matrix(1,0,0,1,-1093,-0)">
                        <path d="M1571,520.972C1569.148,531.997 1569.811,527.449 1561,531C1554.594,533.582 1554.41,527.359 1556,518.972C1557.59,510.585 1563.121,513.944 1563.121,513.944C1563.121,513.944 1563.686,513.407 1563.944,513.845C1566.194,517.665 1572.199,513.831 1571,520.972Z" style="fill:rgb(219,179,150);"/>
                    </g>
                    <path d="M565.95,313.04C566.64,313.04 567.31,313.04 567.96,313.03L568.23,334.75L568.5,356.5L586.5,357.07L586.5,357.13L577,356.81C571.78,356.64 560.64,356.64 552.25,356.82L537,357.14L537,357.05L551.56,356.78L566.12,356.5L566.31,334.78L566.5,313.05L565.95,313.04ZM631.28,577.75C630.76,576.79 630.34,575.73 630.01,574.54C629.31,572.04 628.32,570 627.82,570C627.38,570 624.98,571.37 622.21,573.19C624.11,571.85 625.77,570.54 627.12,569.29L629.74,566.87L630.2,572.42C630.38,574.62 630.7,576.35 631.28,577.75ZM461.46,575.84C462.24,572.59 462.08,571 460.98,571C460.43,571 457.56,572.6 454.61,574.56C450.97,576.98 447.2,578.73 443.49,579.77C448.13,578.45 452.86,576.03 457.35,572.58C460.01,570.54 462.41,569.08 462.68,569.34C462.93,569.6 462.39,572.51 461.46,575.84ZM586.29,311.53C586.71,309.64 586.95,298.87 586.82,286.5L586.62,266.43L586.87,285.69C587.04,298.44 586.88,309.8 586.52,310.94C586.45,311.16 586.38,311.35 586.29,311.53ZM572.65,313C581.37,312.9 585,312.6 585.98,311.99C585.14,312.89 583.19,313 576.91,313L572.65,313ZM539,298.19C540.1,296.42 541.37,295.11 543.13,294.16C541.37,295.11 540.11,296.42 539.03,298.19C538.16,299.61 537.52,302.07 537.19,304.56C537.27,301.9 537.8,300.14 539,298.19ZM669.32,574.84C662.26,579.91 654.1,583.4 647.5,584.36C647.88,584.29 648.29,584.21 648.73,584.13C655.47,582.77 663,579.35 669.32,574.84ZM459.79,580.64C458.66,582.8 456.92,584.2 452.6,587.4C456.66,584.4 458.64,582.6 459.79,580.64ZM425.39,578.61C422.46,577.09 420.78,575.21 419.78,572.2C420.8,575.09 422.58,577.12 425.39,578.61ZM640.48,584.25C640.31,584.21 640.13,584.16 639.96,584.11C638.33,583.62 636.93,583.03 635.72,582.31C636.56,582.76 637.52,583.18 638.63,583.6C639.31,583.86 639.92,584.08 640.48,584.25ZM537.47,311.9C537.6,312.15 537.74,312.34 537.91,312.45C537.95,312.47 538.04,312.49 538.18,312.51L537.5,312.5L537.47,311.9Z" style="fill:rgb(237,218,200);fill-rule:nonzero;"/>
                </g>
            </g>
        </g>
    </g>
</svg>
